<?xml version="1.0" standalone="no"?>
<!DOCTYPE svg PUBLIC "-//W3C//DTD SVG 20010904//EN"
 "http://www.w3.org/TR/2001/REC-SVG-20010904/DTD/svg10.dtd">
<svg version="1.0" xmlns="http://www.w3.org/2000/svg"
 width="768.000000pt" height="768.000000pt" viewBox="0 0 768.000000 768.000000"
 preserveAspectRatio="xMidYMid meet">
<metadata>
Created by potrace 1.11, written by Peter Selinger 2001-2013
</metadata>
<g transform="translate(0.000000,768.000000) scale(0.100000,-0.100000)"
fill="#000000" stroke="none">
<path d="M3419 7646 c-2 -2 -34 -7 -71 -10 -37 -4 -75 -8 -85 -10 -222 -42
-259 -50 -358 -75 -74 -18 -112 -29 -263 -76 -68 -21 -224 -80 -279 -105 -24
-11 -45 -20 -48 -20 -3 0 -57 -25 -121 -56 -268 -128 -559 -314 -774 -493 -30
-25 -68 -57 -85 -71 -16 -13 -104 -99 -195 -190 -408 -407 -694 -856 -895
-1404 -37 -99 -118 -374 -128 -431 -3 -16 -13 -66 -22 -109 -8 -44 -17 -91
-19 -105 -3 -14 -8 -46 -11 -71 -4 -25 -9 -52 -10 -60 -4 -20 -14 -113 -24
-225 -9 -90 -7 -592 2 -630 3 -11 8 -52 11 -90 4 -39 8 -80 10 -90 2 -11 7
-42 10 -70 35 -249 133 -602 243 -870 282 -691 795 -1317 1418 -1731 102 -69
210 -134 219 -134 3 0 6 213 6 473 l0 472 -59 48 c-61 49 -236 219 -306 297
-287 319 -514 717 -635 1115 -12 39 -26 81 -30 95 -29 81 -84 371 -72 381 12
11 450 122 570 145 13 3 103 20 200 40 97 19 193 37 212 40 19 3 87 14 150 24
150 25 186 30 240 36 25 2 56 7 70 9 35 7 197 25 353 40 l67 7 0 -1780 c0
-1687 1 -1781 18 -1786 128 -40 469 -113 602 -130 25 -3 66 -8 92 -11 l46 -6
0 3810 0 3811 -22 0 c-13 0 -25 -2 -27 -4z m-713 -3122 c-2 -5 -26 -11 -52
-13 -27 -1 -60 -4 -74 -6 -14 -2 -90 -11 -170 -20 -80 -9 -170 -20 -200 -25
-30 -5 -80 -12 -110 -15 -30 -3 -62 -8 -70 -10 -8 -2 -33 -7 -55 -10 -23 -3
-50 -7 -60 -9 -11 -2 -40 -7 -65 -11 -25 -4 -54 -9 -65 -11 -11 -2 -47 -9 -80
-14 -162 -29 -472 -96 -663 -143 l-214 -53 6 50 c14 124 56 325 98 466 235
796 792 1467 1532 1845 78 39 164 81 191 93 l50 21 3 -1062 c1 -584 0 -1067
-2 -1073z"/>
<path d="M4229 7638 c-1 -7 -2 -1722 -3 -3811 l-1 -3798 45 6 c123 15 220 30
270 40 14 3 50 10 80 16 30 5 64 12 75 14 143 30 468 136 641 208 718 303
1344 842 1765 1517 84 136 234 425 254 490 4 14 11 30 15 35 31 41 163 447
204 625 18 80 55 289 62 350 3 25 7 59 9 75 27 225 27 679 0 875 -2 14 -6 48
-9 75 -15 120 -47 282 -88 440 -17 66 -33 131 -36 145 -2 14 -8 30 -12 35 -4
6 -10 24 -14 40 -10 40 -69 201 -113 305 -493 1177 -1554 2040 -2803 2279
-135 26 -155 29 -215 36 -27 3 -67 8 -87 11 -28 4 -38 2 -39 -8z m934 -1063
c84 -41 166 -82 182 -92 17 -10 48 -29 70 -42 408 -244 785 -622 1032 -1036
181 -302 320 -663 379 -985 27 -149 38 -230 29 -230 -3 0 -106 24 -228 54
-184 45 -467 107 -602 130 -16 3 -41 8 -55 11 -91 18 -390 65 -510 80 -19 2
-60 7 -90 11 -30 3 -62 8 -70 9 -8 2 -76 8 -150 15 -74 7 -142 16 -150 21 -13
7 -15 136 -15 1068 0 878 2 1061 13 1061 8 0 82 -34 165 -75z m-8 -2850 c22
-2 60 -6 85 -9 25 -3 99 -13 165 -21 66 -8 131 -17 145 -19 14 -3 60 -10 103
-16 92 -14 107 -16 212 -35 44 -8 91 -16 105 -19 240 -42 838 -181 873 -203 5
-3 6 -22 2 -42 -4 -20 -9 -47 -11 -61 -70 -414 -263 -870 -517 -1224 -44 -61
-83 -113 -86 -116 -4 -3 -14 -15 -23 -28 -31 -45 -136 -160 -243 -265 -243
-240 -516 -429 -840 -583 -62 -30 -119 -54 -127 -54 -11 0 -13 235 -12 1348 1
741 2 1351 3 1356 0 4 29 5 64 1 34 -3 80 -8 102 -10z"/>
</g>
</svg>
